<?xml version="1.0" encoding="utf-8"?>
<!-- Generator: Adobe Illustrator 21.0.0, SVG Export Plug-In . SVG Version: 6.00 Build 0)  -->
<svg version="1.1" id="Layer_1" xmlns="http://www.w3.org/2000/svg" xmlns:xlink="http://www.w3.org/1999/xlink" x="0px" y="0px"
	 viewBox="0 0 1024 768" style="enable-background:new 0 0 1024 768;" xml:space="preserve">
<g>
	<path d="M546,717.3c-0.1-1.7,1.2-3.1,2.8-3.2l0,0c1.7-0.1,3.1,1.2,3.1,2.9l0,0c0.1,1.7-1.2,3.1-2.8,3.1l0,0c0,0-0.1,0-0.1,0l0,0
		C547.4,720.1,546,718.9,546,717.3z M503.7,719.1L503.7,719.1L503.7,719.1c-1.6-0.2-2.9-1.6-2.7-3.3l0,0c0.2-1.6,1.6-2.9,3.3-2.7
		l0,0c1.6,0.1,2.9,1.6,2.7,3.3l0,0c-0.1,1.5-1.5,2.7-3,2.7l0,0C503.9,719.1,503.8,719.1,503.7,719.1z M560.9,716.3
		c-0.2-1.7,1-3.1,2.7-3.3l0,0c1.7-0.2,3.1,1,3.3,2.7l0,0c0.2,1.6-1,3.1-2.7,3.3l0,0c-0.1,0-0.2,0-0.3,0l0,0
		C562.4,719,561.1,717.9,560.9,716.3z M488.7,717.3L488.7,717.3L488.7,717.3c-1.6-0.2-2.8-1.8-2.5-3.4l0,0c0.2-1.6,1.8-2.8,3.4-2.5
		l0,0c1.6,0.2,2.8,1.8,2.5,3.4l0,0c-0.2,1.5-1.5,2.6-3,2.6l0,0C489,717.4,488.8,717.4,488.7,717.3z M575.8,714.7
		c-0.2-1.6,0.9-3.2,2.5-3.4l0,0c1.6-0.2,3.2,0.9,3.4,2.5l0,0c0.2,1.6-0.9,3.2-2.5,3.4l0,0l0,0l0,0c-0.1,0-0.3,0-0.4,0l0,0
		C577.3,717.2,576,716.1,575.8,714.7z M473.8,714.9c-1.6-0.3-2.7-1.9-2.4-3.5l0,0c0.3-1.6,1.9-2.7,3.5-2.4l0,0
		c1.6,0.3,2.7,1.9,2.4,3.5l0,0c-0.3,1.4-1.5,2.4-2.9,2.4l0,0C474.1,714.9,473.9,714.9,473.8,714.9z M590.6,712.3
		c-0.3-1.6,0.7-3.2,2.4-3.5l0,0c1.6-0.3,3.2,0.7,3.5,2.4l0,0c0.3,1.6-0.7,3.2-2.4,3.5l0,0c-0.2,0-0.4,0.1-0.6,0.1l0,0
		C592.2,714.7,590.9,713.7,590.6,712.3z M458.9,711.6c-1.6-0.4-2.6-2-2.2-3.6l0,0c0.4-1.6,2-2.6,3.6-2.2l0,0c1.6,0.4,2.6,2,2.2,3.6
		l0,0c-0.3,1.4-1.6,2.3-2.9,2.3l0,0C459.4,711.7,459.2,711.7,458.9,711.6z M605.3,709.2c-0.4-1.6,0.6-3.2,2.2-3.6h0
		c1.6-0.4,3.2,0.6,3.6,2.2l0,0c0.4,1.6-0.6,3.2-2.2,3.6l0,0c-0.2,0.1-0.5,0.1-0.7,0.1l0,0C606.9,711.5,605.6,710.5,605.3,709.2z
		 M444.3,707.7c-1.6-0.5-2.5-2.1-2-3.7l0,0c0.5-1.6,2.1-2.5,3.7-2l0,0c1.6,0.5,2.5,2.1,2,3.7l0,0c-0.4,1.3-1.6,2.1-2.9,2.1l0,0
		C444.9,707.8,444.6,707.8,444.3,707.7z M619.8,705.4c-0.5-1.6,0.4-3.3,2-3.7l0,0c1.6-0.5,3.3,0.4,3.7,2l0,0c0.5,1.6-0.4,3.3-2,3.7
		l0,0c-0.3,0.1-0.6,0.1-0.9,0.1l0,0C621.4,707.5,620.2,706.7,619.8,705.4z M429.9,703.1c-1.6-0.6-2.4-2.3-1.9-3.8l0,0
		c0.5-1.6,2.3-2.4,3.8-1.8l0,0c1.6,0.5,2.4,2.3,1.9,3.8l0,0c-0.4,1.2-1.6,2-2.8,2l0,0C430.6,703.3,430.2,703.2,429.9,703.1z
		 M634.1,700.9c-0.5-1.6,0.3-3.3,1.8-3.8v0c1.6-0.6,3.3,0.3,3.8,1.8l0,0c0.5,1.6-0.3,3.3-1.8,3.8l0,0c-0.3,0.1-0.7,0.2-1,0.2l0,0
		C635.7,702.9,634.6,702.1,634.1,700.9z M415.7,697.8L415.7,697.8L415.7,697.8c-1.5-0.6-2.3-2.4-1.7-3.9l0,0
		c0.6-1.5,2.4-2.3,3.9-1.7l0,0c1.5,0.6,2.3,2.4,1.7,3.9l0,0c-0.5,1.2-1.6,1.9-2.8,1.9l0,0C416.5,698,416.1,698,415.7,697.8z
		 M648.2,695.7c-0.6-1.5,0.1-3.3,1.6-3.9l0,0c1.5-0.6,3.3,0.1,3.9,1.6l0,0c0.6,1.5-0.1,3.3-1.6,3.9l0,0c-0.4,0.2-0.8,0.2-1.1,0.2
		l0,0C649.8,697.6,648.7,696.9,648.2,695.7z M401.8,691.8L401.8,691.8L401.8,691.8c-1.5-0.7-2.2-2.5-1.5-4l0,0
		c0.7-1.5,2.5-2.2,4-1.5l0,0c1.5,0.7,2.2,2.5,1.5,4l0,0c-0.5,1.1-1.6,1.8-2.7,1.8l0,0C402.6,692.1,402.2,692,401.8,691.8z
		 M662,689.9c-0.7-1.5,0-3.3,1.5-4h0c1.5-0.7,3.3-0.1,4,1.5l0,0c0.7,1.5,0,3.3-1.5,4l0,0c-0.4,0.2-0.8,0.3-1.3,0.3l0,0
		C663.6,691.6,662.5,691,662,689.9z M388.2,685.2L388.2,685.2L388.2,685.2c-1.5-0.8-2.1-2.6-1.3-4l0,0c0.8-1.5,2.6-2,4-1.3l0,0
		c1.5,0.8,2.1,2.6,1.3,4l0,0c-0.5,1-1.6,1.6-2.7,1.6l0,0C389.1,685.5,388.6,685.4,388.2,685.2z M675.5,683.4
		c-0.8-1.5-0.2-3.3,1.3-4.1l0,0c1.5-0.8,3.3-0.2,4.1,1.3l0,0c0.8,1.5,0.2,3.3-1.3,4l0,0c-0.4,0.2-0.9,0.3-1.4,0.3l0,0
		C677.1,685,676.1,684.4,675.5,683.4z M374.9,677.9L374.9,677.9L374.9,677.9c-1.4-0.8-1.9-2.7-1.1-4.1l0,0c0.8-1.4,2.7-1.9,4.1-1.1
		l0,0c1.4,0.8,1.9,2.7,1.1,4.1l0,0c-0.6,1-1.6,1.5-2.6,1.5l0,0C375.9,678.3,375.4,678.1,374.9,677.9z M688.7,676.2
		c-0.8-1.4-0.4-3.3,1.1-4.1l0,0c1.4-0.8,3.3-0.4,4.1,1.1l0,0c0.8,1.4,0.4,3.3-1.1,4.1l0,0c-0.5,0.3-1,0.4-1.5,0.4l0,0
		C690.3,677.7,689.3,677.2,688.7,676.2z M362,669.9C362,669.9,362,669.9,362,669.9L362,669.9c-1.4-0.9-1.8-2.8-0.9-4.2l0,0
		c0.9-1.4,2.8-1.8,4.1-0.9l0,0c1.4,0.9,1.8,2.8,0.9,4.2l0,0c-0.6,0.9-1.5,1.4-2.5,1.4l0,0C363.1,670.4,362.5,670.3,362,669.9z
		 M701.5,668.5c-0.9-1.4-0.5-3.3,0.9-4.2v0c1.4-0.9,3.3-0.5,4.2,0.9l0,0c0.9,1.4,0.5,3.3-0.9,4.2l0,0c0,0,0,0,0,0l0,0
		c-0.5,0.3-1.1,0.5-1.6,0.5l0,0C703.1,669.8,702.1,669.3,701.5,668.5z M349.5,661.4c-1.3-1-1.6-2.8-0.7-4.2l0,0
		c1-1.4,2.8-1.7,4.2-0.7l0,0c1.3,1,1.6,2.8,0.7,4.2l0,0c-0.6,0.8-1.5,1.2-2.4,1.2l0,0C350.7,662,350.1,661.8,349.5,661.4z M714,660
		c-1-1.3-0.7-3.2,0.7-4.2v0c1.3-1,3.2-0.7,4.2,0.7l0,0c1,1.3,0.7,3.2-0.7,4.2l0,0l0,0l0,0c-0.5,0.4-1.2,0.6-1.8,0.6l0,0
		C715.5,661.3,714.6,660.9,714,660z M337.5,652.3C337.5,652.3,337.5,652.3,337.5,652.3L337.5,652.3c-1.3-1-1.5-2.9-0.5-4.2l0,0
		c1-1.3,2.9-1.5,4.2-0.5l0,0c1.3,1,1.5,2.9,0.5,4.2l0,0c-0.6,0.7-1.5,1.1-2.4,1.1l0,0C338.7,652.9,338,652.7,337.5,652.3z
		 M726,651.1c-1-1.3-0.8-3.2,0.5-4.2h0c1.3-1,3.2-0.8,4.2,0.5l0,0c1,1.3,0.8,3.2-0.5,4.2l0,0l0,0l0,0c-0.6,0.4-1.2,0.7-1.9,0.7l0,0
		C727.5,652.2,726.6,651.8,726,651.1z M325.9,642.5c-1.3-1.1-1.4-3-0.3-4.2l0,0c1.1-1.3,3-1.4,4.2-0.3l0,0c1.3,1.1,1.4,3,0.3,4.2
		l0,0c-0.6,0.7-1.4,1-2.3,1l0,0C327.1,643.3,326.4,643,325.9,642.5z M737.6,641.5c-1.1-1.2-1-3.1,0.3-4.2l0,0c1.2-1.1,3.1-1,4.2,0.3
		l0,0c1.1,1.2,1,3.1-0.3,4.2l0,0c-0.6,0.5-1.3,0.8-2,0.8l0,0C739,642.5,738.1,642.2,737.6,641.5z M748.7,631.4
		c-1.2-1.2-1.1-3.1,0.1-4.2l0,0c1.2-1.2,3.1-1.1,4.2,0.1l0,0c1.1,1.2,1.1,3.1-0.1,4.2l0,0l0,0l0,0c-0.6,0.6-1.3,0.8-2.1,0.8l0,0
		C750,632.3,749.2,632,748.7,631.4z M759.3,620.8c-1.2-1.1-1.3-3-0.1-4.2l0,0c1.1-1.2,3-1.3,4.2-0.1l0,0c1.2,1.1,1.3,3,0.1,4.2l0,0
		c-0.6,0.6-1.4,1-2.2,1l0,0C760.6,621.6,759.8,621.4,759.3,620.8z M823.6,520.5c-1.5-0.6-2.3-2.3-1.7-3.9l0,0
		c0.6-1.5,2.3-2.3,3.9-1.7l0,0c1.5,0.6,2.3,2.3,1.7,3.9l0,0c-0.5,1.2-1.6,1.9-2.8,1.9l0,0C824.4,520.7,824,520.6,823.6,520.5z
		 M828.8,506.4c-1.6-0.5-2.4-2.2-1.9-3.8l0,0c0.5-1.6,2.2-2.4,3.8-1.9l0,0c1.6,0.5,2.4,2.2,1.9,3.8l0,0c-0.4,1.3-1.6,2.1-2.8,2.1
		l0,0C829.5,506.5,829.1,506.5,828.8,506.4z M230.1,491.1c-0.5-1.6,0.5-3.3,2.1-3.7l0,0c1.6-0.5,3.3,0.5,3.7,2.1l0,0
		c0.5,1.6-0.5,3.3-2.1,3.7l0,0c-0.3,0.1-0.6,0.1-0.8,0.1l0,0C231.7,493.3,230.5,492.4,230.1,491.1z M833.3,492.1
		c-1.6-0.5-2.5-2.1-2.1-3.7l0,0c0.4-1.6,2.1-2.5,3.7-2.1l0,0c1.6,0.4,2.5,2.1,2.1,3.7l0,0c-0.4,1.3-1.6,2.2-2.9,2.2l0,0
		C833.9,492.2,833.6,492.1,833.3,492.1z M226.3,476.4L226.3,476.4L226.3,476.4c-0.4-1.6,0.6-3.2,2.3-3.6l0,0
		c1.6-0.4,3.2,0.6,3.6,2.3l0,0c0.4,1.6-0.6,3.2-2.2,3.6l0,0c-0.2,0.1-0.5,0.1-0.7,0.1l0,0C227.9,478.7,226.7,477.8,226.3,476.4z
		 M837.1,477.6c-1.6-0.4-2.6-2-2.3-3.6l0,0c0.4-1.6,2-2.6,3.6-2.3l0,0c1.6,0.4,2.6,2,2.3,3.6l0,0c0,0,0,0,0,0l0,0
		c-0.3,1.4-1.5,2.3-2.9,2.3l0,0C837.6,477.6,837.3,477.6,837.1,477.6z M223.3,461.6c-0.3-1.6,0.8-3.2,2.4-3.5l0,0
		c1.6-0.3,3.2,0.8,3.5,2.4l0,0c0.3,1.6-0.8,3.2-2.4,3.5l0,0c-0.2,0-0.4,0-0.5,0l0,0C224.8,464,223.6,463,223.3,461.6z M840.2,462.9
		c-1.6-0.3-2.7-1.8-2.4-3.5l0,0c0.3-1.6,1.8-2.7,3.5-2.4l0,0c1.6,0.3,2.7,1.8,2.4,3.5l0,0c-0.3,1.5-1.5,2.5-3,2.5l0,0
		C840.6,462.9,840.4,462.9,840.2,462.9z M221,446.6c-0.2-1.6,0.9-3.1,2.6-3.4l0,0c1.6-0.2,3.1,0.9,3.4,2.6l0,0
		c0.2,1.6-1,3.1-2.6,3.4l0,0c-0.1,0-0.3,0-0.4,0l0,0C222.4,449.2,221.2,448.1,221,446.6z M842.6,448.1c-1.6-0.2-2.8-1.7-2.6-3.4l0,0
		c0.2-1.6,1.7-2.8,3.4-2.6l0,0c1.6,0.2,2.8,1.7,2.6,3.4l0,0l0,0l0,0c-0.2,1.5-1.5,2.6-3,2.6l0,0
		C842.9,448.1,842.8,448.1,842.6,448.1z M219.4,431.5c-0.1-1.7,1.1-3.1,2.7-3.2l0,0c1.7-0.1,3.1,1.1,3.2,2.8l0,0
		c0.1,1.7-1.1,3.1-2.8,3.2l0,0c-0.1,0-0.2,0-0.3,0l0,0C220.8,434.3,219.5,433.1,219.4,431.5z M844.3,433.2c-1.7-0.1-2.9-1.6-2.8-3.2
		l0,0c0.1-1.7,1.6-2.9,3.2-2.8l0,0c1.6,0.1,2.9,1.6,2.8,3.2l0,0l0,0l0,0c-0.1,1.6-1.4,2.8-3,2.8l0,0
		C844.5,433.2,844.4,433.2,844.3,433.2z M218.5,416.4L218.5,416.4L218.5,416.4c-0.1-1.7,1.2-3,2.9-3.1l0,0c1.7,0,3,1.2,3.1,2.9l0,0
		c0.1,1.7-1.2,3-2.9,3.1l0,0c0,0-0.1,0-0.1,0l0,0C219.8,419.3,218.5,418.1,218.5,416.4z M845.3,418.2c-1.7-0.1-3-1.4-2.9-3.1l0,0
		c0-1.7,1.4-3,3.1-2.9l0,0c1.7,0,3,1.4,2.9,3.1l0,0l0,0l0,0C848.3,416.9,847,418.2,845.3,418.2L845.3,418.2
		C845.3,418.2,845.3,418.2,845.3,418.2z M221.3,404.3c-1.7,0-3-1.4-3-3l0,0c0-1.7,1.4-3,3-3l0,0c1.7,0,3,1.4,3,3l0,0
		C224.3,403,222.9,404.3,221.3,404.3L221.3,404.3C221.3,404.3,221.3,404.3,221.3,404.3z M842.5,400.3c0-1.7,1.3-3,3-3l0,0
		c1.7,0,3,1.3,3,3l0,0c0,1.7-1.3,3-2.9,3l0,0c0,0,0,0-0.1,0l0,0C843.8,403.2,842.5,401.9,842.5,400.3z M221.7,389.3
		c-1.6-0.1-2.9-1.5-2.8-3.2l0,0l0,0l0,0c0.1-1.7,1.5-2.9,3.2-2.8l0,0c1.7,0.1,2.9,1.5,2.8,3.2l0,0c-0.1,1.6-1.4,2.8-3,2.8l0,0
		C221.8,389.3,221.7,389.3,221.7,389.3z M835.8,341.3L835.8,341.3 M823.5,298.5c-0.6-1.6,0.2-3.3,1.8-3.9l0,0
		c1.6-0.6,3.3,0.2,3.9,1.8l0,0l0,0l0,0c0.6,1.6-0.2,3.3-1.8,3.9l0,0c-0.3,0.1-0.7,0.2-1,0.2l0,0C825.1,300.5,824,299.7,823.5,298.5z
		 M818.1,284.7L818.1,284.7c-0.7-1.5,0.1-3.3,1.6-3.9l0,0c1.5-0.6,3.3,0.1,3.9,1.6l0,0l0,0l0,0c0.6,1.5-0.1,3.3-1.6,3.9l0,0
		c-0.4,0.2-0.8,0.2-1.2,0.2l0,0C819.7,286.5,818.6,285.8,818.1,284.7z M812,271.2c-0.7-1.5-0.1-3.3,1.4-4l0,0c1.5-0.7,3.3-0.1,4,1.4
		l0,0c0.7,1.5,0.1,3.3-1.4,4l0,0c-0.4,0.2-0.9,0.3-1.3,0.3l0,0C813.5,272.9,812.5,272.3,812,271.2z M805.2,257.9L805.2,257.9
		c-0.8-1.4-0.3-3.3,1.2-4.1l0,0c1.5-0.8,3.3-0.3,4.1,1.2l0,0c0.8,1.5,0.3,3.3-1.2,4.1l0,0c-0.5,0.3-1,0.4-1.4,0.4l0,0
		C806.8,259.5,805.7,259,805.2,257.9z M797.8,245.1L797.8,245.1c-0.9-1.4-0.4-3.3,1-4.1l0,0c1.4-0.9,3.3-0.4,4.1,1l0,0c0,0,0,0,0,0
		l0,0c0.9,1.4,0.4,3.3-1,4.1l0,0c-0.5,0.3-1,0.4-1.6,0.4l0,0C799.3,246.5,798.3,246,797.8,245.1z M272.3,234.3
		c-1.4-0.9-1.7-2.8-0.8-4.2l0,0c0.9-1.4,2.8-1.8,4.2-0.8l0,0c1.4,0.9,1.8,2.8,0.8,4.2l0,0c-0.6,0.9-1.5,1.3-2.5,1.3l0,0
		C273.3,234.8,272.8,234.7,272.3,234.3z M789.8,232.6L789.8,232.6c-0.9-1.4-0.6-3.2,0.8-4.2l0,0c1.4-0.9,3.2-0.6,4.2,0.8l0,0l0,0
		l0,0c0.9,1.4,0.6,3.2-0.8,4.2l0,0c-0.5,0.4-1.1,0.5-1.7,0.5l0,0C791.3,233.9,790.3,233.4,789.8,232.6z M280.8,222
		c-1.3-1-1.6-2.9-0.6-4.2l0,0c1-1.3,2.9-1.6,4.2-0.6l0,0c1.3,1,1.6,2.9,0.6,4.2l0,0c-0.6,0.8-1.5,1.2-2.4,1.2l0,0
		C281.9,222.6,281.3,222.4,280.8,222z M781.1,220.5c-1-1.3-0.7-3.2,0.6-4.2l0,0c1.3-1,3.2-0.7,4.2,0.6l0,0c1,1.3,0.7,3.2-0.6,4.2
		l0,0c-0.5,0.4-1.2,0.6-1.8,0.6l0,0C782.6,221.7,781.7,221.3,781.1,220.5z M289.9,210.1c-1.3-1-1.5-2.9-0.4-4.2l0,0
		c1-1.3,2.9-1.5,4.2-0.4l0,0c1.3,1,1.5,2.9,0.4,4.2l0,0c-0.6,0.7-1.4,1.1-2.3,1.1l0,0C291.1,210.8,290.5,210.5,289.9,210.1z
		 M772,208.8L772,208.8c-1-1.3-0.9-3.2,0.4-4.2l0,0c1.3-1.1,3.2-0.9,4.2,0.4l0,0l0,0l0,0c1,1.3,0.9,3.2-0.4,4.2l0,0
		c-0.6,0.5-1.2,0.7-1.9,0.7l0,0C773.4,209.9,772.6,209.5,772,208.8z M299.6,198.6c-1.2-1.1-1.3-3-0.2-4.2l0,0l0,0l0,0
		c1.1-1.2,3-1.3,4.2-0.2l0,0c1.2,1.1,1.3,3,0.2,4.2l0,0c-0.6,0.7-1.4,1-2.2,1l0,0C300.9,199.4,300.1,199.1,299.6,198.6z
		 M762.2,197.6L762.2,197.6c-1.1-1.2-1-3.1,0.2-4.2l0,0c1.2-1.1,3.1-1,4.2,0.2l0,0l0,0l0,0c1.1,1.2,1,3.1-0.2,4.2l0,0
		c-0.6,0.5-1.3,0.8-2,0.8l0,0C763.6,198.5,762.8,198.2,762.2,197.6z M309.8,187.6c-1.2-1.2-1.2-3.1,0-4.2l0,0c1.2-1.2,3.1-1.2,4.2,0
		l0,0c1.2,1.2,1.2,3.1,0,4.2l0,0c-0.6,0.6-1.4,0.9-2.1,0.9l0,0C311.1,188.5,310.4,188.2,309.8,187.6z M752,186.8
		c-1.2-1.2-1.2-3.1,0-4.2l0,0c1.2-1.2,3.1-1.2,4.2,0l0,0l0,0l0,0c1.2,1.2,1.2,3.1,0,4.2l0,0c-0.6,0.6-1.3,0.9-2.1,0.9l0,0
		C753.3,187.7,752.6,187.4,752,186.8z M743.8,178.9c-1.2-1.1-1.3-3-0.2-4.2l0,0c1.1-1.2,3-1.3,4.2-0.1l0,0c1.2,1.1,1.3,3,0.2,4.2
		l0,0c-0.6,0.6-1.4,0.9-2.2,0.9l0,0C745.1,179.7,744.3,179.4,743.8,178.9z M320.5,177.1c-1.1-1.2-1-3.1,0.2-4.2l0,0c0,0,0,0,0,0l0,0
		c1.2-1.1,3.1-1,4.2,0.2l0,0c1.1,1.2,1,3.1-0.2,4.2l0,0c-0.6,0.5-1.3,0.8-2,0.8l0,0C321.9,178.1,321.1,177.8,320.5,177.1z
		 M331.7,167.2c-1.1-1.3-0.9-3.2,0.4-4.2l0,0c1.3-1.1,3.2-0.9,4.2,0.4l0,0c1.1,1.3,0.9,3.2-0.4,4.2l0,0c-0.6,0.5-1.2,0.7-1.9,0.7
		l0,0C333.1,168.3,332.3,167.9,331.7,167.2z M629.5,111.5c-1.6-0.5-2.4-2.2-1.9-3.8l0,0c0.5-1.6,2.2-2.4,3.8-1.9l0,0
		c1.6,0.5,2.4,2.2,1.9,3.8l0,0c-0.4,1.3-1.6,2.1-2.9,2.1l0,0C630.1,111.7,629.8,111.6,629.5,111.5z M615.3,107.3
		c-1.6-0.4-2.5-2.1-2.1-3.7l0,0c0.4-1.6,2.1-2.5,3.7-2.1l0,0c1.6,0.4,2.5,2.1,2.1,3.7l0,0c-0.4,1.3-1.6,2.2-2.9,2.2l0,0
		C615.8,107.4,615.6,107.3,615.3,107.3z M600.9,103.7L600.9,103.7c-1.6-0.4-2.6-2-2.3-3.6l0,0c0.4-1.6,2-2.6,3.6-2.3l0,0
		c1.6,0.4,2.6,2,2.3,3.6l0,0c-0.3,1.4-1.5,2.3-2.9,2.3l0,0C601.3,103.8,601.1,103.7,600.9,103.7z M586.3,100.8
		c-1.6-0.3-2.7-1.8-2.5-3.5l0,0c0.3-1.6,1.8-2.7,3.5-2.4l0,0c1.6,0.3,2.7,1.8,2.4,3.5l0,0c-0.3,1.5-1.5,2.5-3,2.5l0,0
		C586.6,100.9,586.5,100.8,586.3,100.8z M479.3,97.9c-0.3-1.6,0.8-3.2,2.5-3.4l0,0c1.6-0.3,3.2,0.8,3.5,2.5l0,0
		c0.3,1.6-0.8,3.2-2.5,3.5l0,0c-0.2,0-0.3,0-0.5,0l0,0C480.9,100.5,479.6,99.4,479.3,97.9z M571.6,98.6L571.6,98.6
		c-1.6-0.2-2.8-1.7-2.6-3.3l0,0c0.2-1.7,1.7-2.8,3.3-2.6l0,0c1.6,0.2,2.8,1.7,2.6,3.3l0,0c-0.2,1.5-1.5,2.6-3,2.6l0,0
		C571.9,98.7,571.7,98.6,571.6,98.6z M494.2,95.7c-0.2-1.6,1-3.1,2.6-3.3l0,0l0,0l0,0c1.6-0.2,3.1,1,3.3,2.6l0,0
		c0.2,1.6-1,3.1-2.6,3.3l0,0c-0.1,0-0.2,0-0.4,0l0,0C495.7,98.4,494.4,97.3,494.2,95.7z M556.8,97.2c-1.7-0.1-2.9-1.6-2.8-3.2l0,0
		c0.1-1.6,1.6-2.9,3.2-2.8l0,0c1.7,0.1,2.9,1.6,2.8,3.2l0,0c-0.1,1.6-1.4,2.8-3,2.8l0,0C557,97.2,556.9,97.2,556.8,97.2z
		 M509.1,94.2c-0.1-1.6,1.1-3.1,2.8-3.2l0,0c1.6-0.1,3.1,1.1,3.2,2.8l0,0c0.1,1.7-1.1,3.1-2.8,3.2l0,0c-0.1,0-0.1,0-0.2,0l0,0
		C510.5,97,509.2,95.8,509.1,94.2z M542,96.4L542,96.4c-1.7,0-3-1.4-2.9-3.1l0,0c0-1.7,1.4-3,3.1-2.9l0,0c1.7,0,3,1.4,2.9,3.1l0,0
		C545,95.1,543.7,96.4,542,96.4L542,96.4C542,96.4,542,96.4,542,96.4z M524.1,93.4c0-1.7,1.3-3,2.9-3.1l0,0c1.7,0,3,1.3,3.1,2.9l0,0
		c0,1.7-1.3,3-2.9,3.1l0,0c0,0,0,0-0.1,0l0,0C525.5,96.3,524.1,95,524.1,93.4z"/>
</g>
<g>
	<path class="digital-mark-st0" d="M92.9,668.6l74.6-158.4l127.3,177.7l-170.5,26.4L92.9,668.6z"/>
	<path class="digital-mark-st0" d="M45.6,678l35.1-24.4l56.3,80.9l-35.1,24.4L45.6,678z"/>
	<path class="digital-mark-st0" d="M241.4,564.4c8.9-8.2,22.9-6.6,29.9,3.1c6.8,9.5,4,22.8-6,28.8"/>
	<path class="digital-mark-st0" d="M226.3,533.2c25.7-16.2,59.9-8.7,76.3,16.9c15.4,24.1,9.8,56.1-13,73.4"/>
	<path class="digital-mark-st0" d="M207.2,510c36.2-22.9,83.9-15.7,111.6,17.1c31.7,37.4,26.6,93.5-11.3,124.6"/>
</g>
<g>
	<path class="digital-mark-st0" d="M268.4,279.2l18.2-21.5c-42.6-28.2-105-7-110.8,47c-3.5,31.9,15.4,59.5,43.3,68.1c45.4,14,91.6-23.1,85.2-72
		l-61.4-0.7l-0.9,25.6l35.3-0.9c-5.5,17.5-20.8,26.5-36.4,26.2c-18.5-0.4-35.5-13.5-38.3-35.6C198.1,279.1,240.3,256,268.4,279.2z"
		/>
	<g>
		<path class="digital-mark-st0" d="M306.1,257.6l-0.1,34.6"/>
		<path class="digital-mark-st0" d="M292.7,274.8h26.6"/>
	</g>
</g>
<g>
	<path class="digital-mark-st0" d="M371.7,39.3h70.2c8.5,0,12.8,0,17.4,1.4c5,1.7,8.9,5.8,10.8,10.8c1.4,4.6,1.4,8.9,1.4,17.6V139
		c0,8.5,0,12.8-1.4,17.4c-1.9,5-5.8,8.9-10.8,10.8c-4.6,1.4-8.9,1.4-17.6,1.4h-70c-8.5,0-12.8,0-17.4-1.4
		c-4.9-1.9-8.9-5.8-10.8-10.8c-1.4-4.6-1.4-8.9-1.4-17.6V69c0-8.5,0-12.8,1.4-17.4c1.9-5,5.9-9.1,10.8-10.8
		c4.6-1.4,8.9-1.4,17.6-1.4H371.7z"/>
	<path class="digital-mark-st0" d="M371.7,39.3h70c8.6,0,13,0,17.4,1.4c5,1.9,9.1,5.8,10.8,10.8c1.6,4.6,1.6,8.9,1.6,17.6V139
		c0,8.6,0,13-1.6,17.4c-1.7,5-5.8,9.1-10.8,10.8c-4.5,1.6-8.8,1.6-17.4,1.6h-70c-8.5,0-12.8,0-17.4-1.6c-5-1.7-8.9-5.8-10.8-10.8
		c-1.4-4.5-1.4-8.8-1.4-17.4V69c0-8.5,0-12.8,1.4-17.4c1.9-5,5.8-8.9,10.8-10.8c4.6-1.4,8.9-1.4,17.6-1.4H371.7z"/>
	<path class="digital-mark-st0" d="M355.2,84.7h22.6l-0.9,62.7h-22.3L355.2,84.7z"/>
	<path class="digital-mark-st0" d="M355.2,84.7h22.6l-0.9,62.7h-22.3L355.2,84.7z"/>
	<path class="digital-mark-st0" d="M373.8,57.3c4.2,4.2,4.2,11,0,15.1c-4.2,4.2-11,4.2-15.1,0c-4.2-4.2-4.2-11,0-15.1
		C362.9,53.1,369.6,53.1,373.8,57.3z"/>
	<path class="digital-mark-st0" d="M373.7,57.3c4.2,4.2,4.2,11,0,15c-4,4.2-10.8,4.2-15,0c-4.2-4-4.2-10.8,0-15C362.9,53.1,369.6,53.1,373.7,57.3
		z"/>
	<path class="digital-mark-st0" d="M392.4,84.5l-0.7,62.4l21.2,0.6l0.6-39.3c1.4-4.3,5.5-7.3,10.1-7.1c5.5,0.1,9.8,4.5,10.1,9.9v38.5l20.6-0.1
		l-0.3-53.5c-4-8.8-12.8-14.6-22.5-14.4c-9.9,0.1-18.9,6.3-22.5,15.6l0.9-12L392.4,84.5z"/>
</g>
<g>
	<path class="digital-mark-st0" d="M595.2,115.3l52.3,0.8l0.8,73.7l-52.1-0.1L595.2,115.3z"/>
	<path class="digital-mark-st0" d="M595.2,115.3l52.3,0.8l0.8,73.7l-52.1-0.1L595.2,115.3z"/>
	<path class="digital-mark-st0" d="M648.9,119.3c7.2-5.5,13.7-12,19.4-19.2C674.3,92.5,679,84,682.7,75c-0.8-4.4-1.1-8.8-1.1-13.2
		s0.3-8.8,0.9-13.1c2.5-4.4,7.6-6.6,12.5-5.4c3.9,0.9,6.9,3.5,8.9,6.8c1.8,2.6,3,5.8,3.4,9.2c0.9,7.8,0.9,15.8,0.3,23.6
		c-0.8,7.7-2.1,15.3-4.2,22.6l50.9-2c2.5,2.6,3.7,6.4,3,10.2c-0.9,4.7-4.5,8.4-9.2,9.5c3,3,4.3,7.2,3.7,11.3
		c-0.9,4.8-4.2,8.8-8.7,10.5c4.5,0.4,7.8,4.2,7.8,8.7c0,5.2-4.4,9.1-9.5,8.7c4,2.4,6.2,7.2,5.2,11.7c-0.9,4.5-4.5,7.9-8.9,8.7
		l-86.8-2.4"/>
	<path class="digital-mark-st0" d="M648.9,119.3c7.3-5.5,13.9-12,19.4-19.3c5.9-7.7,10.8-16.1,14.4-25.1c-0.6-4.4-1-8.8-1.1-13.2
		c0-4.4,0.3-8.8,0.9-13.2c2.5-4.3,7.6-6.6,12.5-5.4c3.9,0.9,6.9,3.7,9.1,6.8c1.8,2.8,2.9,5.9,3.4,9.3c0.8,7.8,0.8,15.8,0.1,23.6
		c-0.6,7.6-2,15.1-4.2,22.6l50.9-2c2.6,2.6,3.8,6.4,3,10.1c-0.9,4.8-4.4,8.4-9.1,9.5c2.9,3,4.2,7.3,3.5,11.5
		c-0.8,4.8-4.2,8.7-8.7,10.3c4.5,0.5,7.9,4.3,7.8,8.8c0,5-4.3,9.1-9.5,8.7c4,2.4,6.2,7.1,5.3,11.7c-1,4.5-4.5,7.9-9.1,8.7l-86.7-2.5
		"/>
</g>
<g>
	<path class="digital-mark-st0" d="M737.2,534.2l140.6,1.4l0.1,73.4l-140.1-1.9l-0.7-72.6L737.2,534.2z"/>
	<path class="digital-mark-st0" d="M737.1,534.2l140.7,1.4l0.1,73.4l-140.2-1.9l-0.6-72.7V534.2z"/>
	<path class="digital-mark-st0" d="M736.2,534l71.7,52.4l70.6-50.3"/>
	<path class="digital-mark-st0" d="M736.2,534l71.7,52.4l70.6-50.3"/>
</g>
<path class="digital-mark-st0" d="M512.7,759.8h25.3l0.3-67.4l22.1-1l-0.6-21.5l-22.8-0.2l-0.6-19.2c3.4-3,7.5-5,12.2-5.5
	c5.1-0.6,10.4,0.8,14.8,3.8l0.3-24.1l-54.1,0.3c-0.2,7.7-0.2,15.4,0,23.1c0.2,7.4,0.5,14.8,1,22.1l-17.6,0.2v22.6l18.6-0.3
	L512.7,759.8z"/>
<path class="digital-mark-st0" d="M836.5,309.3c-2.9-11.8,1.1-24.1,10.3-31.9c13.8-11.7,34.4-10.4,46.5,3l20.2-9.2c-0.7,3.2-2,6.2-3.7,9
	c-2.5,4-5.9,7.5-10,10l20.8-3.5l-18.3,15.5c0.5,35.3-18.6,67.9-49.6,84.8c-29.7,16.1-65.7,15.1-94.5-2.6c8.8,1.7,17.9,1.2,26.5-1.3
	c8.2-2.4,15.7-6.7,22-12.4c-6.4-0.9-12.6-3.3-17.9-7.1c-5.3-3.7-9.5-8.7-12.5-14.4c2.2,0.6,4.6,0.8,6.9,0.6c2-0.3,4.1-0.9,5.9-1.8
	c-7.8-1.5-14.8-6.1-19.3-12.6c-4.1-6-5.9-13.2-5.1-20.4c1.8,2.3,4.3,4,7.1,4.7c2.5,0.6,5.1,0.4,7.5-0.5
	c-7.2-3.9-12.5-10.6-14.5-18.6c-2-8.2-0.4-16.8,4.4-23.7c8.9,10.3,19.9,18.6,32.3,24.2C812.5,306.1,824.4,308.8,836.5,309.3z"/>
<circle class="digital-mark-st0" cx="332" cy="436.2" r="17.4"/>
<circle class="digital-mark-st0" cx="438.2" cy="566.2" r="17.4"/>
<circle class="digital-mark-st0" cx="375.8" cy="355.3" r="17.4"/>
<circle class="digital-mark-st0" cx="422" cy="279.9" r="17.4"/>
<circle class="digital-mark-st0" cx="471.7" cy="436.2" r="17.4"/>
<circle class="digital-mark-st0" cx="533.4" cy="384" r="17.4"/>
<circle class="digital-mark-st0" cx="405.8" cy="493.6" r="17.4"/>
<circle class="digital-mark-st0" cx="536.8" cy="531.8" r="17.4"/>
<circle class="digital-mark-st0" cx="621.8" cy="503.3" r="17.4"/>
<circle class="digital-mark-st0" cx="595.2" cy="333.9" r="17.4"/>
<circle class="digital-mark-st0" cx="709.8" cy="478.1" r="17.4"/>
<circle class="digital-mark-st0" cx="466.7" cy="214.2" r="17.4"/>
</svg>
