<svg version="1.1" id="Layer_1" xmlns="http://www.w3.org/2000/svg" xmlns:xlink="http://www.w3.org/1999/xlink" x="0px" y="0px"
	 viewBox="0 0 400 400" style="enable-background:new 0 0 400 400;" xml:space="preserve">

<g>
	<g class="flora-st0">
		<path class="flora-st1" d="M196.9,18.6c-36.8,21-67.3,49.9-89.8,83.5c-24.3,35.4-40.4,77.6-39,122.5c1.9,78.2,56.8,145.6,133,163.2
			c76.3-25,126.4-97.7,122.3-177.6c-2.2-41-18.3-78.5-40.7-111C260.5,67.1,231.6,39.6,196.9,18.6z"/>
	</g>
	<g>
		<g class="flora-st0">
			<path class="flora-st2" d="M192.4,382.8c-27.9-10.5-51.5-30.4-66.4-56.1c-13.1-23.2-19-49.8-18.1-76.8c1.5-47.6,21.6-90.5,50.8-125
				s68.2-61.1,113.6-75.5c14.8,17.4,28,35.4,39.6,54c11.9,18.7,22.1,38,28.7,58.9c13,41.4,10.1,87.7-10.5,128.7
				C303.6,343.9,251.5,378.7,192.4,382.8z"/>
		</g>
		<g class="flora-st0">
			<path class="flora-st2" d="M198.5,389.2c28.1-10.8,51.3-30.9,65.9-56.9c13.3-23,18.6-49.6,17.5-76.6c-1.8-47.8-22-90.5-51.6-124.7
				c-29.4-34.4-68.5-60.7-114.1-74.5c-14.6,17.4-27.6,35.5-39.1,54c-11.6,18.8-21.9,38.2-28.2,59c-12.7,41.8-9.5,87.9,11.6,129
				C87.2,351,139.7,385.5,198.5,389.2z"/>
		</g>
	</g>
	<g class="flora-st0">
		<path class="flora-st2" d="M193.2,107.7c47.3,35.7,77,90.4,81.6,149.8c2,28.7-1.7,57.4-15.6,81.8c-13.8,24.1-36.4,42.4-63.6,50.3
			c-23.6-6.9-43.8-21.9-57.4-41.7c-13.4-19.7-19.8-43.8-21.5-68.1C112.1,213.1,140.6,148.6,193.2,107.7z"/>
	</g>
	<g>
		<path class="flora-st3" d="M188.6,390.9c-18.8-18.6-30.1-43-32.6-69c-2.3-25.2,3.8-50.5,14.6-73.9c27.7-60.6,83.3-103.7,148.8-116.1
			c29.7,46.8,34.3,104.8,12.8,155.7c-12.5,29.3-32.6,54.1-57.8,72.2C249.7,377.4,220.1,388.5,188.6,390.9z"/>
		<path class="flora-st3" d="M201.3,390.6c18.5-18.6,29.5-43.2,31.8-69c2.2-25.5-4.1-50.5-15.1-74.1c-28.3-60.4-84.1-103-149.7-114.7
			C39.1,179.5,34.7,238,56.6,288.5c12.9,29.4,33.3,54,58.5,71.6C140.2,377.6,169.8,388.6,201.3,390.6z"/>
	</g>
	<g class="flora-st4">
		<g class="flora-st0">
			<path class="flora-st5" d="M194,383.7c4.8-18.3,4.3-37.3-0.6-55.2c-5.3-20-16.6-37.8-30.2-53.6c-32.9-39-78.5-65.6-128.9-75.4
				c-1.9,21.3,0.3,42.4,5.8,62.5s15.3,39.1,27.9,56.2c14.7,20.4,33.3,36.8,54.8,48.1C144.7,378.1,169,384.1,194,383.7z"/>
		</g>
		<g class="flora-st0">
			<path class="flora-st5" d="M187.1,392c-4.9-18.1-4.9-37.3,0-55.2c5.6-19.9,16.5-38,29.8-53.7c32.8-39.4,78-66.5,128.4-76.3
				c2.1,21.2,0.3,42.4-5.3,62.4c-5.7,20.2-14.9,39.4-27.5,56.7c-14.6,20.1-33.2,36.9-54.8,48.5C236.2,385.9,212.1,392.3,187.1,392z"
				/>
		</g>
	</g>
	<g class="flora-st6">
		<g class="flora-st0">
			<path class="flora-st7" d="M196.2,381.1c9.8-27.6,26.6-51.9,49-71c27.2-23.1,61.3-36.8,97-38.9c-10.3,30.3-29.6,57.1-55.5,76.6
				C260.5,367.8,229,379.4,196.2,381.1z"/>
		</g>
		<g class="flora-st0">
			<path class="flora-st7" d="M189,378.2c-9.9-27.4-27-51.8-49.1-70.6c-27.7-23-61.9-36.5-97.8-38.2c10.8,30.4,30.3,56.9,56.4,76.3
				C124.8,365.4,156.3,376.6,189,378.2z"/>
		</g>
	</g>
</g>
</svg>
