<?xml version="1.0" encoding="utf-8"?>
<!-- Generator: Adobe Illustrator 21.0.0, SVG Export Plug-In . SVG Version: 6.00 Build 0)  -->
<svg version="1.1" id="Layer_1" xmlns="http://www.w3.org/2000/svg" xmlns:xlink="http://www.w3.org/1999/xlink" x="0px" y="0px"
	 viewBox="0 0 998 951" style="enable-background:new 0 0 998 951;" xml:space="preserve">
<g>
	<rect x="73.5" y="78.4" class="web-design-st0" width="851.4" height="635.1"/>
	<path class="web-design-st1" d="M976.6,786.3H20.4c-6.6,0-12-5.4-12-12V26c0-6.6,5.4-12,12-12h956.2c6.6,0,12,5.4,12,12v748.3
		C988.6,780.9,983.2,786.3,976.6,786.3z"/>
	<line class="web-design-st1" x1="436.4" y1="786.3" x2="436.4" y2="847"/>
	<line class="web-design-st1" x1="537.6" y1="786.3" x2="537.6" y2="847"/>
	<path class="web-design-st0" d="M789.2,150.5H174.1v96.6l484.6,9.2C658.6,256.4,755.4,152.1,789.2,150.5z"/>
	<path class="web-design-st0" d="M174.1,396v101.2h307.6c14.6,0,31.4-53.6,31.4-53.6c-16.9-19.8,6.1-47.7,6.1-47.7H174.1z"/>
	<path class="web-design-st1" d="M721.7,939H241.6c-5.5,0-10-4.5-10-10v-72c0-5.5,4.5-10,10-10h480.1c5.5,0,10,4.5,10,10v72
		C731.7,934.5,727.2,939,721.7,939z"/>
	<path class="web-design-st0" d="M576.1,385.4c0,0,50.3-18.8,78.4,35.7c0,0,22.9,35.7-39.2,64.5c0,0-40.5,28.2-96.1,16.3c0,0,32-38.9,30.1-67
		C549.3,435,550.6,395.5,576.1,385.4z"/>
	<path class="web-design-st0" d="M631.4,362c0,0,34.4-56.7,99.3-109.3c0,0,100.8-95.7,125.1-94c0,0,6.6-1.7,0,13c0,0-71.4,123.5-103.3,155.8
		c0,0-70.4,87.8-78.5,80.4C674,407.9,654.2,368.8,631.4,362z"/>
</g>
</svg>
