<?xml version="1.0" encoding="utf-8"?>
<!-- Generator: Adobe Illustrator 21.0.0, SVG Export Plug-In . SVG Version: 6.00 Build 0)  -->
<svg version="1.1" id="Layer_1" xmlns="http://www.w3.org/2000/svg" xmlns:xlink="http://www.w3.org/1999/xlink" x="0px" y="0px"
	 viewBox="0 0 1000 900" style="enable-background:new 0 0 1000 900;" xml:space="preserve">
<g>
	<line class="web-development-st0" x1="366" y1="741.4" x2="366" y2="804"/>
	<line class="web-development-st0" x1="450.9" y1="741.4" x2="450.9" y2="803.9"/>
	<g>
		<path class="web-development-st1" d="M151.6,220.1v-62h7.7v27.4c4.1-6,9.1-8.9,15-8.9c3.7,0,6.7,1.2,8.9,3.5s3.3,5.5,3.3,9.4v30.6h-7.7V192
			c0-3.2-0.5-5.4-1.4-6.8c-0.9-1.3-2.5-2-4.6-2c-4.7,0-9.2,3.1-13.4,9.3v27.6H151.6z"/>
		<path class="web-development-st1" d="M220.5,220.1c-2.4,0.7-4.4,1-6.2,1c-3.9,0-7-1.1-9.2-3.4s-3.3-5.4-3.3-9.4v-25h-5.3v-5.8h5.3v-7.7l7.7-0.7
			v8.5h11.1v5.8h-11.1v23.6c0,5.6,2.4,8.4,7.2,8.4c1,0,2.3-0.2,3.7-0.5V220.1z"/>
		<path class="web-development-st1" d="M250.6,220.1c-2.4,0.7-4.4,1-6.2,1c-3.9,0-7-1.1-9.2-3.4c-2.2-2.3-3.3-5.4-3.3-9.4v-25h-5.3v-5.8h5.3v-7.7
			l7.7-0.7v8.5h11.1v5.8h-11.1v23.6c0,5.6,2.4,8.4,7.2,8.4c1,0,2.3-0.2,3.7-0.5V220.1z"/>
		<path class="web-development-st1" d="M261.7,235.6v-58.1h7.7v8c3.2-6,7.9-8.9,14.2-8.9c5.1,0,9.2,1.9,12.1,5.6c2.9,3.7,4.4,8.9,4.4,15.3
			c0,7.1-1.7,12.8-5,17.1c-3.3,4.3-7.7,6.5-13.2,6.5c-5.1,0-9.2-1.9-12.6-5.8v20.3H261.7z M269.4,209.9c4,3.6,7.8,5.3,11.4,5.3
			c3.6,0,6.3-1.5,8.2-4.4c1.9-3,2.9-7.1,2.9-12.5c0-10-3.3-15-9.9-15c-4.3,0-8.5,2.3-12.6,7V209.9z"/>
		<path class="web-development-st1" d="M310.7,218.6v-7.1c5.1,2.5,9.4,3.8,13.2,3.8c2.2,0,4.1-0.6,5.5-1.8c1.5-1.2,2.2-2.7,2.2-4.5
			c0-2.6-2.1-4.8-6.2-6.6l-4.5-1.9c-6.7-2.8-10-6.8-10-12c0-3.7,1.3-6.6,3.9-8.8c2.6-2.1,6.2-3.2,10.8-3.2c2.4,0,5.3,0.3,8.8,1
			l1.6,0.3v6.4c-4.3-1.3-7.8-1.9-10.3-1.9c-2.3,0-4,0.5-5.4,1.5c-1.3,1-2,2.3-2,3.9c0,2.3,1.9,4.3,5.7,5.9l3.7,1.6
			c4.2,1.8,7.2,3.7,8.9,5.6c1.8,2,2.6,4.4,2.6,7.4c0,3.7-1.5,6.8-4.4,9.2c-3,2.4-6.7,3.6-11.3,3.6
			C320,221.1,315.7,220.2,310.7,218.6z"/>
		<path class="web-development-st1" d="M354.3,185.2v-7.7h7.7v7.7H354.3z M354.3,220.1v-7.7h7.7v7.7H354.3z"/>
		<path class="web-development-st1" d="M379.6,231.7l20.6-69.7h4.1l-20.6,69.7H379.6z"/>
		<path class="web-development-st1" d="M421.8,231.7l20.6-69.7h4.1l-20.6,69.7H421.8z"/>
	</g>
	<path class="web-development-st0" d="M606.1,893.2H228.7c-5.5,0-10-4.5-10-10v-69.3c0-5.5,4.5-10,10-10h377.5c5.5,0,10,4.5,10,10v69.3
		C616.1,888.7,611.6,893.2,606.1,893.2z"/>
	<rect x="115.9" y="134.1" class="web-development-st2" width="674.3" height="129.5"/>
	<g>
		<path class="web-development-st3" d="M55.7,676.7V73.8h781.5v384.1h44.7v-393c0-29.5-24.1-53.6-53.6-53.6H64.6C35.1,11.3,11,35.4,11,64.8v625.2
			c0,29.5,24.1,53.6,53.6,53.6h678.8v-67H55.7z"/>
		<path class="web-development-st3" d="M743.4,743.6v49.1c0,29.5,24.1,53.6,53.6,53.6h138.4c29.5,0,53.6-24.1,53.6-53.6V511.4
			c0-29.5-24.1-53.6-53.6-53.6h-53.6"/>
		<path class="web-development-st3" d="M837.2,457.8H797c-29.5,0-53.6,24.1-53.6,53.6v165.2"/>
	</g>
	<circle class="web-development-st4" cx="866.2" cy="795" r="26.8"/>
	<rect x="772.4" y="518.1" class="web-development-st0" width="183.1" height="223.3"/>
	<g>
		<path class="web-development-st1" d="M197.9,397.4l-46.5-23.3l46.5-23.3v4.3l-37.7,18.9l37.7,18.9V397.4z"/>
		<path class="web-development-st1" d="M214.4,397.4v-62h7.7v27.4c4.1-6,9.1-8.9,15-8.9c3.7,0,6.7,1.2,8.9,3.5c2.2,2.3,3.3,5.5,3.3,9.4v30.6h-7.7
			v-28.1c0-3.2-0.5-5.4-1.4-6.8s-2.5-2-4.6-2c-4.7,0-9.2,3.1-13.4,9.3v27.6H214.4z"/>
		<path class="web-development-st1" d="M283.3,397.4c-2.4,0.7-4.4,1-6.2,1c-3.9,0-7-1.1-9.2-3.4c-2.2-2.3-3.3-5.4-3.3-9.4v-25h-5.3v-5.8h5.3V347
			l7.7-0.7v8.5h11.1v5.8h-11.1v23.6c0,5.6,2.4,8.4,7.2,8.4c1,0,2.3-0.2,3.7-0.5V397.4z"/>
		<path class="web-development-st1" d="M294.3,397.4v-42.6h7.7v8c3.8-6,8.6-8.9,14.5-8.9c5.7,0,9.6,3,11.6,8.9c3.7-6,8.4-8.9,14.3-8.9
			c3.7,0,6.7,1.1,8.7,3.3s3.1,5.3,3.1,9.3v31h-7.7v-29.8c0-4.9-1.9-7.3-5.8-7.3c-4,0-8.2,2.8-12.6,8.5v28.5h-7.7v-29.8
			c0-4.9-2-7.3-5.9-7.3c-3.9,0-8.1,2.9-12.5,8.6v28.6H294.3z"/>
		<path class="web-development-st1" d="M369.4,397.4v-62h7.7v62H369.4z"/>
		<path class="web-development-st1" d="M393.6,397.4V393l37.8-18.9l-37.8-18.9v-4.3l46.5,23.3L393.6,397.4z"/>
		<path class="web-development-st1" d="M197.9,493.8l-46.5-23.3l46.5-23.3v4.3l-37.7,18.9l37.7,18.9V493.8z"/>
		<path class="web-development-st1" d="M214.4,493.8v-62h7.7v27.4c4.1-6,9.1-8.9,15-8.9c3.7,0,6.7,1.2,8.9,3.5c2.2,2.3,3.3,5.5,3.3,9.4v30.6h-7.7
			v-28.1c0-3.2-0.5-5.4-1.4-6.8c-0.9-1.4-2.5-2-4.6-2c-4.7,0-9.2,3.1-13.4,9.3v27.6H214.4z"/>
		<path class="web-development-st1" d="M295.5,492.4c-5.2,1.6-9.6,2.4-13.3,2.4c-6.3,0-11.4-2.1-15.4-6.3s-5.9-9.6-5.9-16.2c0-6.5,1.7-11.7,5.2-15.9
			c3.5-4.1,8-6.2,13.4-6.2c5.2,0,9.1,1.8,12,5.5c2.8,3.7,4.2,8.9,4.2,15.6l0,2.4h-26.9c1.1,10.1,6.1,15.2,14.9,15.2
			c3.2,0,7.2-0.9,11.9-2.6V492.4z M269.1,467.9h18.8c0-7.9-3-11.9-8.9-11.9C273.1,456.1,269.8,460,269.1,467.9z"/>
		<path class="web-development-st1" d="M331,488.4c-4.6,4.3-9.1,6.4-13.4,6.4c-3.5,0-6.5-1.1-8.8-3.3c-2.3-2.2-3.5-5-3.5-8.4c0-4.7,2-8.2,5.9-10.7
			c3.9-2.5,9.5-3.8,16.9-3.8h1.8v-5.1c0-4.9-2.6-7.4-7.7-7.4c-4,0-8.4,1.3-13.1,3.8v-6.4c5.2-2.1,10.1-3.2,14.7-3.2
			c4.7,0,8.2,1.1,10.5,3.2c2.3,2.2,3.4,5.5,3.4,10v19.3c0,4.4,1.4,6.6,4.1,6.6c0.3,0,0.8-0.1,1.5-0.2l0.5,4.3
			c-1.8,0.8-3.7,1.3-5.8,1.3C334.3,494.8,332,492.7,331,488.4z M329.9,484.2v-11l-2.5-0.1c-4.3,0-7.8,0.8-10.4,2.4
			c-2.6,1.6-3.9,3.7-3.9,6.4c0,1.9,0.7,3.4,2,4.7c1.3,1.3,2.9,1.9,4.8,1.9C323.1,488.5,326.4,487,329.9,484.2z"/>
		<path class="web-development-st1" d="M380.8,493.8v-8c-3.1,6-7.9,9-14.2,9c-5.1,0-9.2-1.9-12.1-5.6c-2.9-3.7-4.4-8.9-4.4-15.3
			c0-7.1,1.7-12.8,5-17.1c3.3-4.3,7.7-6.5,13.2-6.5c5.1,0,9.2,1.9,12.6,5.8v-24.2h7.7v62H380.8z M380.8,461.4
			c-4-3.5-7.8-5.3-11.4-5.3c-3.5,0-6.3,1.5-8.2,4.4c-1.9,3-2.9,7.1-2.9,12.6c0,10,3.3,15,9.9,15c4.3,0,8.5-2.3,12.6-7V461.4z"/>
		<path class="web-development-st1" d="M405,493.8v-4.3l37.8-18.9L405,451.6v-4.3l46.5,23.3L405,493.8z"/>
		<path class="web-development-st1" d="M197.9,590.3L151.5,567l46.5-23.3v4.3L160.2,567l37.7,18.9V590.3z"/>
		<path class="web-development-st1" d="M214.4,590.7v-62.4h7.7v27.4c3.2-6,7.9-8.9,14.2-8.9c5.1,0,9.2,1.9,12.1,5.6c2.9,3.7,4.4,8.9,4.4,15.3
			c0,7.1-1.7,12.8-5,17.1c-3.3,4.3-7.7,6.5-13.2,6.5c-5.1,0-9.2-1.9-12.6-5.8l-0.9,5.3H214.4z M222.1,580.1c4,3.6,7.8,5.3,11.4,5.3
			c3.6,0,6.3-1.5,8.2-4.4c1.9-3,2.9-7.1,2.9-12.5c0-10-3.3-15-9.9-15c-4.3,0-8.5,2.3-12.6,7V580.1z"/>
		<path class="web-development-st1" d="M281.9,591.3c-6.3,0-11.2-2-14.9-6c-3.7-4-5.5-9.4-5.5-16.3c0-6.9,1.8-12.3,5.5-16.3c3.7-4,8.6-6,14.9-6
			c6.3,0,11.2,2,14.9,6c3.7,4,5.5,9.4,5.5,16.3c0,6.9-1.8,12.3-5.5,16.3S288.2,591.3,281.9,591.3z M281.9,585.4
			c3.8,0,6.8-1.4,8.9-4.3c2.1-2.9,3.2-6.9,3.2-12.2c0-5.2-1.1-9.3-3.2-12.1c-2.1-2.9-5.1-4.3-8.9-4.3s-6.8,1.4-8.9,4.3
			c-2.1,2.9-3.2,6.9-3.2,12.1c0,5.2,1.1,9.3,3.2,12.2C275.1,584,278.1,585.4,281.9,585.4z"/>
		<path class="web-development-st1" d="M341.7,590.3v-8c-3.1,6-7.9,9-14.2,9c-5.1,0-9.2-1.9-12.1-5.6c-2.9-3.7-4.4-8.9-4.4-15.3
			c0-7.1,1.7-12.8,5-17.1c3.3-4.3,7.7-6.5,13.2-6.5c5.1,0,9.2,1.9,12.6,5.8v-24.2h7.7v62H341.7z M341.7,557.8
			c-4-3.5-7.8-5.3-11.4-5.3c-3.5,0-6.3,1.5-8.2,4.4c-1.9,3-2.9,7.1-2.9,12.6c0,10,3.3,15,9.9,15c4.3,0,8.5-2.3,12.6-7V557.8z"/>
		<path class="web-development-st1" d="M367.4,605.8l6.9-15.5l-16.5-42.6h8.4l12.2,32.1l13-32.1h7.3l-23.3,58.1H367.4z"/>
		<path class="web-development-st1" d="M407.9,590.3v-4.3l37.8-18.9l-37.8-18.9v-4.3l46.5,23.3L407.9,590.3z"/>
	</g>
</g>
</svg>
